<svg id="Layer_1" height="512" viewBox="0 0 512 512" width="512" xmlns="http://www.w3.org/2000/svg" xmlns:x="http://ns.adobe.com/Extensibility/1.0/" xmlns:i="http://ns.adobe.com/AdobeIllustrator/10.0/" xmlns:graph="http://ns.adobe.com/Graphs/1.0/" xmlns:a="http://ns.adobe.com/AdobeSVGViewerExtensions/3.0/"><g><g><path d="m163.223 330.661h-13.989c-19.612 0-35.511-15.899-35.511-35.511v-78.3c0-19.612 15.899-35.511 35.511-35.511h13.989z" fill="#fff"/><path d="m163.223 335.161h-13.989c-22.062 0-40.011-17.949-40.011-40.011v-78.3c0-22.063 17.949-40.011 40.011-40.011h13.989c2.485 0 4.5 2.015 4.5 4.5v149.322c0 2.485-2.015 4.5-4.5 4.5zm-13.989-149.322c-17.1 0-31.011 13.912-31.011 31.011v78.3c0 17.1 13.911 31.011 31.011 31.011h9.489v-140.322z" fill="#4d4d4d"/></g><g><path d="m252.898 394.58-89.675-63.919v-149.322l89.675-63.919z" fill="#59ddee"/><path d="m252.898 399.08c-.92 0-1.835-.282-2.612-.835l-89.675-63.918c-1.185-.845-1.888-2.209-1.888-3.665v-149.323c0-1.455.703-2.82 1.888-3.665l89.675-63.918c1.371-.978 3.175-1.108 4.673-.335 1.498.771 2.439 2.315 2.439 4v277.159c0 1.685-.941 3.229-2.439 4-.65.335-1.357.5-2.061.5zm-85.175-70.738 80.675 57.504v-259.692l-80.675 57.504z" fill="#4d4d4d"/></g><g><path d="m264.318 406c6.307 0 11.42-5.113 11.42-11.42v-277.16c0-6.307-5.113-11.42-11.42-11.42-6.307 0-11.42 5.113-11.42 11.42v277.16c0 6.307 5.113 11.42 11.42 11.42z" fill="#fff"/><path d="m264.318 410.5c-8.778 0-15.92-7.142-15.92-15.92v-277.16c0-8.778 7.142-15.92 15.92-15.92s15.92 7.142 15.92 15.92v277.16c0 8.778-7.142 15.92-15.92 15.92zm0-300c-3.816 0-6.92 3.104-6.92 6.92v277.16c0 3.816 3.104 6.92 6.92 6.92 3.815 0 6.92-3.104 6.92-6.92v-277.16c0-3.816-3.104-6.92-6.92-6.92z" fill="#4d4d4d"/></g><g><path d="m369.367 256 24.516-24.516c5.858-5.857 5.858-15.355 0-21.213-5.858-5.857-15.356-5.858-21.213 0l-24.516 24.516-24.516-24.516c-5.857-5.858-15.355-5.858-21.213 0s-5.858 15.355 0 21.213l24.516 24.516-24.516 24.516c-5.858 5.857-5.858 15.355 0 21.213 2.929 2.929 6.767 4.394 10.606 4.394 3.838 0 7.678-1.465 10.606-4.394l24.516-24.516 24.516 24.516c2.929 2.929 6.768 4.394 10.606 4.394s7.678-1.464 10.606-4.394c5.858-5.858 5.858-15.355 0-21.213z" fill="#59ddee"/><path d="m383.277 310.623c-5.209 0-10.106-2.028-13.789-5.712l-21.334-21.334-21.334 21.334c-3.683 3.683-8.58 5.711-13.789 5.711s-10.105-2.028-13.789-5.711-5.711-8.58-5.711-13.789 2.028-10.105 5.712-13.789l21.334-21.333-21.334-21.334c-3.683-3.683-5.711-8.58-5.711-13.789 0-5.208 2.028-10.105 5.711-13.789 3.683-3.683 8.58-5.712 13.789-5.712s10.106 2.029 13.789 5.712l21.334 21.334 21.334-21.334c3.682-3.683 8.579-5.711 13.788-5.711s10.106 2.028 13.789 5.711c3.684 3.683 5.712 8.58 5.712 13.789s-2.028 10.105-5.712 13.789l-21.335 21.334 21.334 21.334c3.683 3.683 5.711 8.58 5.711 13.789 0 5.208-2.028 10.105-5.711 13.789-3.682 3.682-8.579 5.711-13.788 5.711zm-35.123-37.91c1.152 0 2.303.439 3.182 1.318l24.517 24.516c1.983 1.983 4.62 3.076 7.424 3.076s5.441-1.092 7.424-3.075 3.076-4.62 3.076-7.425-1.092-5.441-3.075-7.424l-24.517-24.516c-.844-.844-1.318-1.989-1.318-3.182s.474-2.338 1.318-3.182l24.517-24.516c1.983-1.983 3.076-4.62 3.076-7.424s-1.092-5.441-3.076-7.424c-1.983-1.983-4.62-3.076-7.425-3.076-2.804 0-5.44 1.092-7.423 3.075l-24.517 24.517c-1.758 1.757-4.606 1.756-6.364 0l-24.516-24.516c-1.983-1.984-4.62-3.076-7.424-3.076s-5.441 1.092-7.424 3.076c-1.983 1.983-3.076 4.62-3.076 7.425s1.092 5.441 3.075 7.424l24.517 24.516c.844.844 1.318 1.989 1.318 3.182s-.474 2.338-1.318 3.182l-24.516 24.516c-1.983 1.983-3.076 4.62-3.076 7.424s1.092 5.441 3.076 7.424c1.983 1.983 4.62 3.076 7.424 3.076 2.805 0 5.441-1.092 7.424-3.076l24.516-24.516c.878-.88 2.029-1.319 3.181-1.319z" fill="#4d4d4d"/></g></g></svg>