<svg id="Layer_1" height="512" viewBox="0 0 512 512" width="512" xmlns="http://www.w3.org/2000/svg" xmlns:x="http://ns.adobe.com/Extensibility/1.0/" xmlns:i="http://ns.adobe.com/AdobeIllustrator/10.0/" xmlns:graph="http://ns.adobe.com/Graphs/1.0/" xmlns:a="http://ns.adobe.com/AdobeSVGViewerExtensions/3.0/"><g><g><g><g><path d="m351.47 345.986c-3.839 0-7.678-1.464-10.606-4.394-5.858-5.858-5.858-15.355 0-21.213 35.499-35.499 35.499-93.259 0-128.758-5.858-5.858-5.858-15.355 0-21.213 5.857-5.858 15.355-5.858 21.213 0 22.863 22.862 35.454 53.26 35.454 85.592 0 32.333-12.591 62.73-35.454 85.592-2.929 2.929-6.768 4.394-10.607 4.394z" fill="#59ddee"/><path d="m351.47 350.485c-5.209 0-10.106-2.028-13.789-5.712-7.603-7.603-7.603-19.974 0-27.577 33.744-33.744 33.744-88.65 0-122.394-7.603-7.603-7.603-19.974 0-27.577 3.683-3.683 8.58-5.712 13.789-5.712s10.106 2.029 13.789 5.712c23.712 23.712 36.771 55.239 36.771 88.773s-13.059 65.062-36.771 88.774c-3.683 3.685-8.58 5.713-13.789 5.713zm0-179.971c-2.805 0-5.441 1.092-7.424 3.076-1.983 1.983-3.076 4.62-3.076 7.425s1.092 5.441 3.076 7.424c37.252 37.253 37.252 97.869 0 135.123-4.094 4.094-4.094 10.755 0 14.849 1.983 1.983 4.62 3.076 7.424 3.076s5.441-1.092 7.424-3.075c22.013-22.013 34.136-51.28 34.136-82.411 0-31.13-12.123-60.397-34.136-82.41-1.982-1.985-4.619-3.077-7.424-3.077z" fill="#4d4d4d"/></g></g><g><g><path d="m316.533 311.048c-3.839 0-7.678-1.464-10.606-4.394-5.858-5.858-5.858-15.355 0-21.213 16.234-16.234 16.234-42.649 0-58.883-5.857-5.858-5.857-15.355 0-21.213 5.858-5.857 15.355-5.857 21.213 0 27.931 27.931 27.931 73.378 0 101.309-2.929 2.93-6.768 4.394-10.607 4.394z" fill="#59ddee"/><path d="m316.533 315.548c-5.209 0-10.106-2.028-13.789-5.712-7.603-7.603-7.603-19.974 0-27.577 7.001-7.001 10.857-16.327 10.857-26.259s-3.856-19.258-10.858-26.26c-7.603-7.604-7.602-19.975 0-27.578 3.684-3.683 8.581-5.711 13.789-5.711s10.105 2.028 13.788 5.711c29.686 29.686 29.686 77.988 0 107.673-3.681 3.685-8.578 5.713-13.787 5.713zm.001-110.096c-2.805 0-5.442 1.092-7.425 3.076-4.094 4.093-4.094 10.755 0 14.849 8.702 8.701 13.494 20.287 13.494 32.624 0 12.336-4.792 23.922-13.493 32.624-4.094 4.094-4.094 10.755 0 14.849 1.983 1.983 4.62 3.076 7.424 3.076s5.441-1.092 7.424-3.075c26.177-26.176 26.177-68.769 0-94.945-1.983-1.986-4.62-3.078-7.424-3.078z" fill="#4d4d4d"/></g></g></g><g><path d="m163.97 330.661h-13.989c-19.612 0-35.511-15.899-35.511-35.511v-78.3c0-19.612 15.899-35.511 35.511-35.511h13.989z" fill="#fff"/><path d="m163.97 335.161h-13.989c-22.063 0-40.011-17.949-40.011-40.011v-78.3c0-22.063 17.949-40.011 40.011-40.011h13.989c2.485 0 4.5 2.015 4.5 4.5v149.322c0 2.485-2.014 4.5-4.5 4.5zm-13.989-149.322c-17.1 0-31.011 13.912-31.011 31.011v78.3c0 17.1 13.912 31.011 31.011 31.011h9.489v-140.322z" fill="#4d4d4d"/></g><g><path d="m253.645 394.58-89.675-63.919v-149.322l89.675-63.919z" fill="#59ddee"/><path d="m253.645 399.08c-.92 0-1.835-.282-2.612-.835l-89.674-63.918c-1.185-.845-1.888-2.209-1.888-3.665v-149.323c0-1.455.703-2.82 1.888-3.665l89.674-63.918c1.371-.978 3.175-1.108 4.673-.335 1.498.771 2.439 2.315 2.439 4v277.159c0 1.685-.941 3.229-2.439 4-.65.335-1.357.5-2.061.5zm-85.175-70.738 80.674 57.503v-259.691l-80.674 57.503z" fill="#4d4d4d"/></g><g><path d="m265.065 406c6.307 0 11.42-5.113 11.42-11.42v-277.16c0-6.307-5.113-11.42-11.42-11.42-6.307 0-11.42 5.113-11.42 11.42v277.16c0 6.307 5.113 11.42 11.42 11.42z" fill="#fff"/><path d="m265.065 410.5c-8.778 0-15.92-7.142-15.92-15.92v-277.16c0-8.778 7.142-15.92 15.92-15.92s15.92 7.142 15.92 15.92v277.16c0 8.778-7.142 15.92-15.92 15.92zm0-300c-3.816 0-6.92 3.104-6.92 6.92v277.16c0 3.816 3.104 6.92 6.92 6.92 3.815 0 6.92-3.104 6.92-6.92v-277.16c0-3.816-3.105-6.92-6.92-6.92z" fill="#4d4d4d"/></g></g></svg>